<svg width="21" height="21" viewBox="0 0 21 21" fill="none" xmlns="http://www.w3.org/2000/svg">
<path d="M10.4998 0L12.9333 3.01043L16.6715 2.00532L16.8708 5.87119L20.4859 7.25532L18.3748 10.5L20.4859 13.7447L16.8708 15.1288L16.6715 18.9947L12.9333 17.9896L10.4998 21L8.06626 17.9896L4.32802 18.9947L4.12876 15.1288L0.513672 13.7447L2.62477 10.5L0.513672 7.25532L4.12876 5.87119L4.32802 2.00532L8.06626 3.01043L10.4998 0Z" fill="#9F59EB"/>
<path d="M7.01559 6.636V15H5.92359V6.636H7.01559Z" fill="#2C0735"/>
<path d="M8.46872 10.812C8.46872 9.996 8.65272 9.264 9.02072 8.616C9.38872 7.96 9.88872 7.448 10.5207 7.08C11.1607 6.712 11.8687 6.528 12.6447 6.528C13.5567 6.528 14.3527 6.748 15.0327 7.188C15.7127 7.628 16.2087 8.252 16.5207 9.06H15.2127C14.9807 8.556 14.6447 8.168 14.2047 7.896C13.7727 7.624 13.2527 7.488 12.6447 7.488C12.0607 7.488 11.5367 7.624 11.0727 7.896C10.6087 8.168 10.2447 8.556 9.98072 9.06C9.71672 9.556 9.58472 10.14 9.58472 10.812C9.58472 11.476 9.71672 12.06 9.98072 12.564C10.2447 13.06 10.6087 13.444 11.0727 13.716C11.5367 13.988 12.0607 14.124 12.6447 14.124C13.2527 14.124 13.7727 13.992 14.2047 13.728C14.6447 13.456 14.9807 13.068 15.2127 12.564H16.5207C16.2087 13.364 15.7127 13.984 15.0327 14.424C14.3527 14.856 13.5567 15.072 12.6447 15.072C11.8687 15.072 11.1607 14.892 10.5207 14.532C9.88872 14.164 9.38872 13.656 9.02072 13.008C8.65272 12.36 8.46872 11.628 8.46872 10.812Z" fill="#2C0735"/>
</svg>
