<svg width="21" height="21" viewBox="0 0 21 21" fill="none" xmlns="http://www.w3.org/2000/svg">
<path d="M10.4998 0L12.9333 3.01043L16.6715 2.00532L16.8708 5.87119L20.4859 7.25532L18.3748 10.5L20.4859 13.7447L16.8708 15.1288L16.6715 18.9947L12.9333 17.9896L10.4998 21L8.06626 17.9896L4.32802 18.9947L4.12876 15.1288L0.513672 13.7447L2.62477 10.5L0.513672 7.25532L4.12876 5.87119L4.32802 2.00532L8.06626 3.01043L10.4998 0Z" fill="#E2824C"/>
<path d="M10.4998 16C9.66834 16 8.90977 15.7893 8.22405 15.368C7.53834 14.9373 6.99405 14.3427 6.59119 13.5843C6.19691 12.8165 5.99977 11.9551 5.99977 11C5.99977 10.0449 6.19691 9.1882 6.59119 8.42978C6.99405 7.66199 7.53834 7.06742 8.22405 6.64607C8.90977 6.21536 9.66834 6 10.4998 6C11.3398 6 12.1026 6.21536 12.7883 6.64607C13.4741 7.06742 14.0141 7.6573 14.4083 8.41573C14.8026 9.17416 14.9998 10.0356 14.9998 11C14.9998 11.9644 14.8026 12.8258 14.4083 13.5843C14.0141 14.3427 13.4741 14.9373 12.7883 15.368C12.1026 15.7893 11.3398 16 10.4998 16ZM10.4998 14.8904C11.1255 14.8904 11.6869 14.7313 12.1841 14.4129C12.6898 14.0946 13.0841 13.6404 13.3669 13.0506C13.6583 12.4607 13.8041 11.7772 13.8041 11C13.8041 10.2135 13.6583 9.52996 13.3669 8.94944C13.0841 8.35955 12.6941 7.90543 12.1969 7.58708C11.6998 7.26873 11.1341 7.10955 10.4998 7.10955C9.86548 7.10955 9.29977 7.26873 8.80262 7.58708C8.30548 7.90543 7.91119 8.35955 7.61977 8.94944C7.33691 9.52996 7.19548 10.2135 7.19548 11C7.19548 11.7772 7.33691 12.4607 7.61977 13.0506C7.91119 13.6404 8.30548 14.0946 8.80262 14.4129C9.30834 14.7313 9.87405 14.8904 10.4998 14.8904Z" fill="#2C0735"/>
</svg>
