<svg width="21" height="21" viewBox="0 0 21 21" fill="none" xmlns="http://www.w3.org/2000/svg">
<path d="M10.4998 0L12.9333 3.01043L16.6715 2.00532L16.8708 5.87119L20.4859 7.25532L18.3748 10.5L20.4859 13.7447L16.8708 15.1288L16.6715 18.9947L12.9333 17.9896L10.4998 21L8.06626 17.9896L4.32802 18.9947L4.12876 15.1288L0.513672 13.7447L2.62477 10.5L0.513672 7.25532L4.12876 5.87119L4.32802 2.00532L8.06626 3.01043L10.4998 0Z" fill="#6FDF6D"/>
<path d="M12.3276 15L10.3356 11.58H9.01559V15H7.92359V6.636H10.6236C11.2556 6.636 11.7876 6.744 12.2196 6.96C12.6596 7.176 12.9876 7.468 13.2036 7.836C13.4196 8.204 13.5276 8.624 13.5276 9.096C13.5276 9.672 13.3596 10.18 13.0236 10.62C12.6956 11.06 12.1996 11.352 11.5356 11.496L13.6356 15H12.3276ZM9.01559 10.704H10.6236C11.2156 10.704 11.6596 10.56 11.9556 10.272C12.2516 9.976 12.3996 9.584 12.3996 9.096C12.3996 8.6 12.2516 8.216 11.9556 7.944C11.6676 7.672 11.2236 7.536 10.6236 7.536H9.01559V10.704Z" fill="#2C0735"/>
</svg>
