<svg width="21" height="21" viewBox="0 0 21 21" fill="none" xmlns="http://www.w3.org/2000/svg">
<path d="M10.4998 0L12.9333 3.01043L16.6715 2.00532L16.8708 5.87119L20.4859 7.25532L18.3748 10.5L20.4859 13.7447L16.8708 15.1288L16.6715 18.9947L12.9333 17.9896L10.4998 21L8.06626 17.9896L4.32802 18.9947L4.12876 15.1288L0.513672 13.7447L2.62477 10.5L0.513672 7.25532L4.12876 5.87119L4.32802 2.00532L8.06626 3.01043L10.4998 0Z" fill="#E2D14C"/>
<path d="M13.5156 9.084C13.5156 9.78 13.2756 10.36 12.7956 10.824C12.3236 11.28 11.5996 11.508 10.6236 11.508H9.01559V15H7.92359V6.636H10.6236C11.5676 6.636 12.2836 6.864 12.7716 7.32C13.2676 7.776 13.5156 8.364 13.5156 9.084ZM10.6236 10.608C11.2316 10.608 11.6796 10.476 11.9676 10.212C12.2556 9.948 12.3996 9.572 12.3996 9.084C12.3996 8.052 11.8076 7.536 10.6236 7.536H9.01559V10.608H10.6236Z" fill="#2C0735"/>
</svg>
