<svg xmlns="http://www.w3.org/2000/svg" viewBox="0 0 866.7 754.86"><defs><style>.cls-1{fill:#1d1d1b;}</style></defs><g id="Camada_2" data-name="Camada 2"><g id="Camada_2-2" data-name="Camada 2"><path class="cls-1" d="M448,513.14a19.69,19.69,0,0,1-37.29,9c-68.36,7.74-128.49,11.62-180,11.62q-61.18,0-105.87-7.3C58.7,515.58,18.36,492.26,5,457.12-17,399.25,33.81,312.33,156.1,198.77q10-9.3,20.12-18.33a19.83,19.83,0,0,1,18-28,19.42,19.42,0,0,1,10.53,3.07c42.56-36.37,82.56-67.1,108.75-86.55h21c-24.16,17.61-71.19,52.87-121.84,96.16a19.73,19.73,0,0,1-28,24.45q-10.12,9-20.2,18.39C48,316.18-3.19,400.78,16.56,452.69c11.68,30.7,48.8,51.38,110.32,61.45,66.06,10.82,160.83,9.35,282-4.35A19.7,19.7,0,0,1,448,513.14Z"/><path class="cls-1" d="M786,552.45c-57.86,47.84-147.86,107-268.23,176.32a18.4,18.4,0,0,1,.24,2.9,17.93,17.93,0,0,1-29.41,13.77q-8.25,4.68-16.7,9.42h-23q17.24-9.61,33.78-19a18.22,18.22,0,0,1-.49-4.2,17.93,17.93,0,0,1,30.4-12.88c119.59-68.9,208.93-127.61,266.27-175,71.37-59,80.44-90,75.5-105.54-5.93-18.64-36.13-29.83-87.34-32.36-38.31-1.89-79.25,1.43-106.86,4.55-3.88.45-9.57,1.21-15.07,1.95-5.18.69-10.52,1.4-14.28,1.84C510.3,428.13,417,429.6,353.31,418.6c-57.89-10-93-30.71-104.47-61.54-19-51.37,27.6-128.13,138.58-228.15,46.87-42.25,95.92-80,129.3-104.52a17.74,17.74,0,0,1-1.2-6.46,17.93,17.93,0,1,1,17.93,17.93,17.74,17.74,0,0,1-9.56-2.77c-33.19,24.38-82.19,62-129,104.25-105.66,95.24-152.5,169.86-135.47,215.8,9.92,26.8,42.16,45.09,95.82,54.37,62.59,10.81,154.85,9.3,274.21-4.49,3.65-.42,8.95-1.12,14.08-1.82,5.56-.74,11.3-1.51,15.31-2,28-3.16,69.59-6.53,108.66-4.61,57.13,2.83,89.93,16.35,97.51,40.21C873.86,462.67,848,501.14,786,552.45Z"/></g></g></svg>