<svg width="123" height="64" viewBox="0 0 123 64" fill="none" xmlns="http://www.w3.org/2000/svg">
<path d="M54.977 48.7714C54.7634 50.2439 53.1331 51.2211 51.3352 50.9569C50.4756 50.83 49.7341 50.4427 49.2159 49.9103C40.4792 49.472 32.876 48.7786 26.4631 47.8353C21.648 47.1267 17.5122 46.2791 14.0559 45.2927C6.09953 43.0189 1.46753 39.8928 0.293624 35.9916C-0.786786 32.4095 1.11757 28.3441 5.95409 23.9078C9.08884 21.0341 13.4903 17.9551 19.0696 14.7289C19.0613 14.58 19.0678 14.4305 19.0891 14.2828C19.3021 12.8117 20.9331 11.8324 22.7323 12.0974C22.9853 12.1343 23.2343 12.1957 23.4757 12.2805C28.9232 9.37158 34.3837 6.83877 38.5709 5L38.5638 5.05037L44.3417 5.20821C40.2402 6.92139 32.9604 10.8493 25.6164 14.7682C25.6276 14.926 25.6219 15.0845 25.5995 15.2411C25.3859 16.7123 23.7549 17.6909 21.957 17.4266C21.6914 17.3878 21.4303 17.3221 21.1779 17.2303C8.58369 24.5298 2.42458 30.9508 3.77899 35.4395C4.61851 38.2235 8.41033 40.5967 15.0499 42.495C22.7011 44.6831 34.0448 46.1725 48.7939 46.9267C49.399 45.973 50.7022 45.4222 52.1053 45.6276C53.9051 45.8919 55.1894 47.2996 54.977 48.7714Z" fill="#2C0735"/>
<path d="M120.771 44.7828C118.875 46.4277 115.797 48.1828 111.364 50.1487C105.571 52.7182 97.4833 55.6081 87.1914 58.7877C86.9721 59.9224 85.454 60.7004 83.7014 60.5461C83.2514 60.5085 82.8092 60.4075 82.3882 60.2459C78.3224 61.4562 73.9563 62.7076 69.2899 64H61.1479C67.9882 62.159 74.9204 59.7382 80.5871 58.0498C80.7013 56.8361 82.2726 55.9841 84.1 56.1449C84.62 56.1873 85.1289 56.3166 85.605 56.5275C95.6677 53.4152 103.565 50.5935 109.205 48.0914C119.225 43.6474 119.595 41.3327 119.29 40.5437C118.764 39.195 115.022 38.0007 109.007 37.2661C102.814 36.5088 96.4734 36.4881 95.7702 36.4881H95.5206C94.4451 36.4881 92.82 36.4881 91.879 36.4783C75.9553 36.3 63.6653 35.345 55.3472 33.641C47.4723 32.0272 42.7827 29.6522 41.413 26.5809C40.1398 23.7248 41.8135 20.4025 46.3902 16.7087C49.8309 13.933 54.9598 10.8856 61.6343 7.65409C65.6496 5.70896 69.7614 3.92527 73.3958 2.43401C73.5474 1.24748 75.103 0.424039 76.9028 0.579649C77.1687 0.602656 77.4323 0.64733 77.6907 0.713215C78.3408 0.459051 78.9571 0.221313 79.5398 0H85.8888C84.7068 0.425984 82.5563 1.72274 80.0079 2.7154C80.0267 2.83421 80.0307 2.95484 80.0198 3.0746C79.9101 4.29096 78.3368 5.14552 76.5068 4.98472C76.0404 4.9451 75.5825 4.83715 75.1483 4.66442C71.6478 6.10641 67.7173 7.81748 63.8793 9.67573C49.9412 16.4253 43.1997 22.2367 44.8957 26.0421C45.8623 28.207 49.6595 29.9829 56.1824 31.3186C64.1604 32.9538 76.103 33.8719 91.6781 34.0456C92.5869 34.0567 94.2593 34.056 95.2567 34.0554H95.5075C96.2442 34.0554 102.893 34.0774 109.409 34.8723C117.443 35.854 121.827 37.5618 122.81 40.0937C123.372 41.5448 122.686 43.1216 120.771 44.7828Z" fill="#2C0735"/>
</svg>
